<svg id="header-logo" xmlns="http://www.w3.org/2000/svg" width="262.313" height="29.18" viewBox="0 0 262.313 29.18">
  <defs>
    <style>
      .cls-1 {
        fill: #168352;
        fill-rule: evenodd;
      }
    </style>
  </defs>
  <path id="images_header_logo.svg" data-name="images/header/logo.svg" class="cls-1" d="M548.714,1095v-9.84l2.4-2.52,8.24,12.36h8.24l-11.6-17.12,10.96-11.48h-8.4l-9.839,10.36V1066.4h-7.081V1095h7.081Zm26.919,0v-20.48h-6.52V1095h6.52Zm0-23.32v-5.28h-6.52v5.28h6.52Zm9.64,23.32v-9.2q0-3.285,1.76-4.78a5.813,5.813,0,0,1,4.8-1.06h0.16v-5.6a3.447,3.447,0,0,0-1.28-.16,6.288,6.288,0,0,0-5.6,3.52h-0.12v-3.2h-6.239V1095h6.519Zm20.92-2.28h0.08a6.032,6.032,0,0,0,.68,2.28h6.321v-0.28c-0.481-.32-0.721-1.29-0.721-2.92v-10.32q0-3.96-2.6-5.84-2.241-1.68-6.64-1.68t-6.779,2a6.661,6.661,0,0,0-2.5,5.04h6q0.321-2.64,3.32-2.64c1.866,0,2.8.73,2.8,2.2a1.533,1.533,0,0,1-1.1,1.46,17.561,17.561,0,0,1-4.1.82,13.194,13.194,0,0,0-5.76,1.9,5.105,5.105,0,0,0-2.079,4.54,5.721,5.721,0,0,0,1.919,4.6,7.57,7.57,0,0,0,5.08,1.64q4.119,0,6.08-2.8h0Zm-6.8-3.64a2.017,2.017,0,0,1,.8-1.72,7.555,7.555,0,0,1,2.76-1.04,18.366,18.366,0,0,0,3.36-1.08v2.44a3.406,3.406,0,0,1-1.14,2.66,4.3,4.3,0,0,1-2.98,1.02q-2.8,0-2.8-2.28h0Zm22.841,5.92v-11.48a4.892,4.892,0,0,1,.859-3.02,2.813,2.813,0,0,1,2.38-1.14q2.88,0,2.88,3.48V1095h6.52v-11.48a4.9,4.9,0,0,1,.86-3.02,2.813,2.813,0,0,1,2.38-1.14q2.88,0,2.88,3.48V1095h6.52v-13.32a8.471,8.471,0,0,0-1.78-5.66,6.413,6.413,0,0,0-5.18-2.1,7.272,7.272,0,0,0-6.44,3.6h-0.079a5.923,5.923,0,0,0-5.761-3.6,6.805,6.805,0,0,0-6.2,3.52h-0.12v-2.92h-6.24V1095h6.521Zm44.64-1.28a8.1,8.1,0,0,0,3.439-4.84h-6.36a3.351,3.351,0,0,1-3.4,2.04,4.162,4.162,0,0,1-3.12-1.18,5.819,5.819,0,0,1-1.48-3.3h14.72q0.08-6.6-3.6-9.96a10.859,10.859,0,0,0-14.58.52,11.678,11.678,0,0,0,.04,15.54,10.575,10.575,0,0,0,7.94,3.06,10.889,10.889,0,0,0,6.4-1.88h0Zm-6.681-15.16a3.573,3.573,0,0,1,2.66,1.08,4.577,4.577,0,0,1,1.22,2.92h-8.08q0.72-4,4.2-4h0Zm19.12,16.44v-6.28l1.96-2.08,4.921,8.36h7.559l-8.04-12.8,7.2-7.68h-7.52l-6.08,6.92V1066.4h-6.44V1095h6.44Zm22.48,0v-20.48h-6.52V1095h6.52Zm0-23.32v-5.28h-6.52v5.28h6.52Zm16.8,23.32v-11.12h11.88v-5.72h-11.88v-5.8h14.2v-5.96h-21.28V1095h7.08Zm28.72-2.28h0.08a6.051,6.051,0,0,0,.68,2.28h6.32v-0.28c-0.48-.32-0.72-1.29-0.72-2.92v-10.32q0-3.96-2.6-5.84-2.239-1.68-6.64-1.68t-6.78,2a6.663,6.663,0,0,0-2.5,5.04h6q0.319-2.64,3.32-2.64c1.866,0,2.8.73,2.8,2.2a1.535,1.535,0,0,1-1.1,1.46,17.549,17.549,0,0,1-4.1.82,13.19,13.19,0,0,0-5.76,1.9,5.106,5.106,0,0,0-2.08,4.54,5.722,5.722,0,0,0,1.92,4.6,7.57,7.57,0,0,0,5.08,1.64q4.121,0,6.08-2.8h0Zm-6.8-3.64a2.017,2.017,0,0,1,.8-1.72,7.554,7.554,0,0,1,2.761-1.04,18.376,18.376,0,0,0,3.359-1.08v2.44a3.406,3.406,0,0,1-1.14,2.66,4.3,4.3,0,0,1-2.98,1.02q-2.8,0-2.8-2.28h0Zm22.84,5.92v-9.2q0-3.285,1.76-4.78a5.813,5.813,0,0,1,4.8-1.06h0.16v-5.6a3.447,3.447,0,0,0-1.28-.16,6.288,6.288,0,0,0-5.6,3.52h-0.12v-3.2h-6.24V1095h6.52Zm15.32,0v-11.48a4.892,4.892,0,0,1,.86-3.02,2.815,2.815,0,0,1,2.381-1.14q2.879,0,2.879,3.48V1095h6.52v-11.48a4.9,4.9,0,0,1,.86-3.02,2.816,2.816,0,0,1,2.38-1.14q2.88,0,2.88,3.48V1095h6.52v-13.32a8.476,8.476,0,0,0-1.779-5.66,6.416,6.416,0,0,0-5.181-2.1,7.271,7.271,0,0,0-6.44,3.6h-0.08a5.923,5.923,0,0,0-5.76-3.6,6.805,6.805,0,0,0-6.2,3.52h-0.12v-2.92h-6.24V1095h6.52Z" transform="translate(-541.625 -1066.41)"/>
</svg>
